<svg xmlns="http://www.w3.org/2000/svg" viewBox="0 0 500 500" width="500" height="500" class="illustration"><defs><style>.cls-1,.cls-3{isolation:isolate;}.cls-2{fill:#24285b;}.cls-3{opacity:0.09;}.cls-4{fill:#ffbaad;}.cls-5{fill:#ff9e91;}.cls-6{fill:#efe7e2;}.cls-10,.cls-6{mix-blend-mode:multiply;}.cls-7{fill:#a45321;}.cls-8{opacity:0.5;mix-blend-mode:soft-light;}.cls-9{fill:#fff;}.cls-10{opacity:0.1;}.cls-11{fill:#afa9a7;}.cls-12{fill:none;stroke:#ff1778;stroke-linecap:round;stroke-linejoin:round;stroke-width:6px;}</style></defs><title>Internet security</title><g class="cls-1"><g id="Layer_1" data-name="Layer 1"><path class="cls-2" d="M387.82,403.19v14.15H113.7c-6.76-64.65,53.58-104.08,112.61-103.93,30.48.33,73.28-3.09,101.31,10.47C359.83,337,388.09,366.87,387.82,403.19Z"></path><path class="cls-3" d="M387.82,403.19c.27-36.32-28-66.19-60.2-79.31-28-13.56-70.83-10.14-101.31-10.47a134.34,134.34,0,0,0-53.39,10.92,132,132,0,0,1,13.48-.68c30.48.33,73.28-3.09,101.31,10.47,32.21,13.12,60.47,43,60.19,79.31v3.91h39.92Z"></path><path class="cls-4" d="M250.77,351.74a30.28,30.28,0,0,1-30.28-30.28V241c.67-39.78,59.88-39.82,60.56,0v80.5A30.29,30.29,0,0,1,250.77,351.74Z"></path><path class="cls-5" d="M279.59,330.76c-8.6,27.82-49.31,27.49-57.66,0C234.18,348.35,266.82,349,279.59,330.76Z"></path><path class="cls-4" d="M190.49,211.21c-1.42-7.18-8.25-13.86-17.62-11.81s-9.4,10.79-8,18c.08.38,4.69,19.78,7.4,23.86s6.64,11.85,13.22,9.64c4.36-1.46,6.93-9.22,8-14.82S190.49,211.21,190.49,211.21Z"></path><path class="cls-4" d="M309.75,210.92c1.43-7.18,8.26-13.86,17.63-11.81s10.29,11,8.87,18.22c-.08.38-5.06,18.34-7.39,23.87-1.93,4.55-7.16,12.57-14,9.77-4.26-1.76-7.09-9.61-8.12-15.22S309.75,210.92,309.75,210.92Z"></path><path class="cls-4" d="M318.91,157.22c0-31.14-19.29-62.38-70.37-62.38S178.92,129,178.92,160.17c0,1.63-.15,86.31,9.76,105.75s37.22,39.28,61.6,39.37c26.66.11,50.61-17,61.81-39.37S318.91,157.22,318.91,157.22Z"></path><path class="cls-5" d="M198.58,164.23c.43.31.83.58,1.34,1,1.4,1.31-5.61,16.95-3.57,17,10.11,2.13,22.25-19.79,32.14-16.72,17.4,5.42,50.13,49.28,82.26,48.42,8.44-8.14,8.16-56.7,8.16-56.7,0-31.14-19.29-62.38-70.37-62.38-42.32,0-62.25,23.47-67.86,49.23C188.58,147.45,195.19,154,198.58,164.23Z"></path><path class="cls-6" d="M309.79,270c.1-.17.24-.33.34-.51-.57.42-1.17.79-1.76,1.2C308.85,270.5,309.32,270.26,309.79,270Z"></path><path class="cls-5" d="M261.85,298.72c-24.38-.09-51.68-19.93-61.59-39.37S190.5,155.24,190.5,153.6c0-14,3.88-28.42,12.6-40.23a64.54,64.54,0,0,1,3.2-7.47c-19.48,12.59-27.38,34-27.38,54.27,0,1.63-.15,86.31,9.76,105.75s37.22,39.28,61.6,39.37c13.82.06,26.84-4.63,37.8-12.18A64.29,64.29,0,0,1,261.85,298.72Z"></path><path class="cls-7" d="M330.33,149.79c-6.28-34.28-34.28-59.13-80-58.85s-75.64,28.26-81.64,60c-2.57,13.59-4.56,39.43-3.5,54.83,7.73-6.36,10.91-7.18,14.65-5.69,2.56,28,8.66,27.58,8.66,27.58s.56-19,1.8-31.59,21.81-14.84,32.1-36.57c32.57-1.41,53.13,40.3,88.84,42.58-3.53,20.64,4.29,28.86,4.29,28.86s.83-17.06,3.71-25.15c2.51-7,10-7,13.7-4C334.67,189,333.8,168.73,330.33,149.79Z"></path><g class="cls-8"><path class="cls-9" d="M330.33,149.79c-6.28-34.28-34.28-59.13-80-58.85-40.07.25-68.06,21.84-78.37,48.57,12.84-22,38.58-38.49,73.57-38.71,45.78-.28,73.77,24.57,80.06,58.85a207.1,207.1,0,0,1,3.4,40.4,8.88,8.88,0,0,1,3.95,1.74C334.67,189,333.8,168.73,330.33,149.79Z"></path></g><g class="cls-10"><path class="cls-11" d="M222.35,143.21c-10.29,21.72-43.43,42.2-57.21,46.26,0-.7-.06-1.53-.1-2.28a185.37,185.37,0,0,0,.1,18.57c7.73-6.36,10.91-7.18,14.65-5.69,2.56,28,8.66,27.58,8.66,27.58s.56-19,1.8-31.59,21.81-14.84,32.1-36.57c32.42-1.41,53,39.91,88.4,42.52C284.62,192.94,254.92,141.79,222.35,143.21Z"></path></g><polyline class="cls-12" points="132.31 137.02 132.31 84.53 184.8 84.53"></polyline><polyline class="cls-12" points="367.33 137.02 367.33 84.53 314.84 84.53"></polyline><polyline class="cls-12" points="132.99 268.44 132.99 320.93 185.48 320.93"></polyline><polyline class="cls-12" points="368.01 268.44 368.01 320.93 315.52 320.93"></polyline><line class="cls-12" x1="141.12" y1="230.93" x2="358.41" y2="230.93"></line></g></g></svg>