<svg xmlns="http://www.w3.org/2000/svg" viewBox="0 0 100 100" width="500" height="500" class="illustration"><defs><style>.cls-1{fill:none;stroke-miterlimit:10;}.cls-1,.cls-2,.cls-3{stroke:#231f20;stroke-width:1.5px;}.cls-2{fill:#231f20;}.cls-2,.cls-3{stroke-linejoin:bevel;}.cls-3{fill:#f0457d;}</style></defs><g id="Layer_2" data-name="Layer 2"><path class="cls-1" d="M45.23,24.53A4.71,4.71,0,0,1,50,19.82h1.6a4.71,4.71,0,0,1,4.72,4.71v1.61a4.72,4.72,0,0,1-4.72,4.72h0a1.59,1.59,0,0,0-1.6,1.6V39.1"></path><path class="cls-1" d="M81.77,49.73H18.23a2.67,2.67,0,0,1-.83-5.2L50,33.84,82.6,44.53A2.67,2.67,0,0,1,81.77,49.73Z"></path><line class="cls-1" x1="66.62" y1="39.29" x2="33.12" y2="39.29"></line><rect class="cls-2" x="26.85" y="47.94" width="50.05" height="32.25"></rect><polyline class="cls-3" points="23.1 71.25 23.1 80.18 73.15 80.18 73.15 47.94 23.1 47.94 23.1 60.37"></polyline></g></svg>